<svg id="Capa_1" enable-background="new 0 0 512 512" height="512" viewBox="0 0 512 512" width="512" xmlns="http://www.w3.org/2000/svg"><g><path d="m10 455.139c0 18.057 14.638 32.694 32.694 32.694h426.611c18.056 0 32.694-14.638 32.694-32.694v-7.306h-491.999z" fill="#bd7557"/><path d="m10 149.173v298.66h492v-298.66" fill="#ec9271"/><g><path d="m462 149.173v298.66h-412v-298.66" fill="#fff"/></g><g><path d="m225.823 380.481-30.549-32.041c-12.25-12.848-32.753-12.848-45.002 0l-94.766 99.394h116.118" fill="#6eb4c7"/></g><g><g><circle cx="382.938" cy="222.772" fill="#fee77b" r="42"/></g><g><path d="m382.938 274.772c-28.673 0-52-23.327-52-52s23.327-52 52-52 52 23.327 52 52-23.327 52-52 52zm0-84c-17.645 0-32 14.355-32 32s14.355 32 32 32 32-14.355 32-32-14.355-32-32-32z"/></g></g><g><g><path d="m233.488 248.578c1.85-4.497 2.871-9.423 2.871-14.587 0-21.185-17.173-38.36-38.357-38.36-3.325 0-6.551.423-9.627 1.218-13.422 3.47-23.995 14.024-27.492 27.436-4.22-3.743-9.764-6.016-15.838-6.016-13.216 0-23.929 10.752-23.929 24.015v6.186h-2.9c-11.814 0-21.391 9.611-21.391 21.468 0 11.856 9.577 21.468 21.391 21.468h93.864 19.255c11.814 0 21.391-9.611 21.391-21.468-.001-11.126-8.436-20.276-19.238-21.36z" fill="#b8ecff"/></g><g><path d="m231.333 301.406h-113.118c-17.309 0-31.391-14.116-31.391-31.467 0-14.953 10.457-27.503 24.425-30.687 1.536-17.34 16.106-30.981 33.795-30.981 3.745 0 7.427.619 10.912 1.805 6.379-11.214 17.095-19.594 29.915-22.908 3.944-1.02 8.025-1.537 12.13-1.537 26.665 0 48.357 21.694 48.357 48.36 0 2.681-.217 5.332-.648 7.938 10.193 5.232 17.013 15.842 17.013 28.009.002 17.352-14.08 31.468-31.39 31.468zm-113.118-42.935c-6.281 0-11.391 5.145-11.391 11.468s5.11 11.467 11.391 11.467h113.119c6.281 0 11.391-5.144 11.391-11.467 0-5.919-4.4-10.825-10.235-11.41-3.143-.315-5.953-2.098-7.577-4.807-1.625-2.709-1.874-6.026-.672-8.948 1.406-3.417 2.119-7.044 2.119-10.782 0-15.638-12.721-28.36-28.357-28.36-2.417 0-4.814.303-7.124.9-9.942 2.57-17.727 10.34-20.317 20.277-.878 3.365-3.441 6.034-6.768 7.045-3.328 1.012-6.942.221-9.544-2.086-2.542-2.255-5.811-3.497-9.203-3.497-7.681 0-13.929 6.287-13.929 14.015v6.186c0 5.523-4.477 10-10 10h-2.903z"/></g></g><path d="m213 149.173h289v-7.306c0-18.057-14.638-32.694-32.694-32.694h-426.612c-18.056 0-32.694 14.638-32.694 32.694v7.306h103" fill="#bd7557"/><g><path d="" fill="#bd7557"/><path d="m162.5 159.17c-6.887.214-12.075-7.545-9.23-13.82 3.201-8.142 15.258-8.144 18.46 0 2.856 6.27-2.348 14.036-9.23 13.82z"/></g><g><g><path d="m295.826 295.976-122.2 151.858h284.564l-113.272-151.022c-12.172-16.228-36.374-16.641-49.092-.836z" fill="#00dba8"/></g><path d="m469.306 99.173h-125.78l-80.384-82.006c-1.88-1.919-4.454-3-7.141-3s-5.261 1.081-7.141 3l-80.385 82.006h-125.781c-23.541 0-42.694 19.153-42.694 42.694v313.271c0 23.542 19.153 42.694 42.694 42.694h426.611c23.542 0 42.694-19.153 42.694-42.694v-313.271c.001-23.541-19.152-42.694-42.693-42.694zm-449.306 60h20v278.661h-20zm58.857 278.661 78.652-82.494c4.019-4.215 9.439-6.537 15.263-6.537s11.245 2.321 15.264 6.537l25.587 26.837-44.787 55.657zm224.759-135.589c4.112-5.111 10.24-7.983 16.79-7.865 6.558.112 12.576 3.186 16.511 8.432l101.271 135.022h-243.68zm188.384-143.072v278.661h-20v-278.661zm-236-120.72 59.52 60.72h-119.04zm-213.306 80.72h426.611c11.603 0 21.199 8.751 22.535 20h-278.84c-5.523 0-10 4.477-10 10s4.477 10 10 10h239v263.743l-99.082-132.104c-7.667-10.223-19.393-16.211-32.17-16.429-12.801-.208-24.701 5.367-32.713 15.323l-61.763 76.753-23.76-24.92c-7.83-8.213-18.392-12.736-29.739-12.736s-21.909 4.523-29.739 12.736l-83.034 87.09v-269.456h53c5.523 0 10-4.477 10-10s-4.477-10-10-10h-92.841c1.336-11.249 10.933-20 22.535-20zm426.612 358.66h-426.612c-11.602 0-21.198-8.751-22.535-19.999h471.682c-1.337 11.248-10.934 19.999-22.535 19.999z"/></g></g></svg>